#!OML:ASF Y:\EmotionMaleHayes\Project 1\Capture day 1\Session 1\Male1.ASF
:FULLY-SPECIFIED
:DEGREES
478
root 45.7921 17.1871 -0.10543 786.451 85.0573 789.745
lowerback 6.71784 2.27865 -5.88849
upperback 2.27519 2.69668 -0.575369
thorax -1.64822 1.36934 2.48405
lowerneck -22.1552 1.04443 3.21897
upperneck 25.9797 1.01593 -1.46076
head 12.2985 0.675247 -0.903213
rclavicle -2.34317e-014 1.12313e-014
rhumerus -34.8286 16.1917 -87.6021
rradius 66.3363
rwrist -9.21477
rhand -10.612 -31.0607
rfingers 7.12502
rthumb 15.3943 -60.4675
lclavicle -2.34317e-014 1.12313e-014
lhumerus -45.7236 -5.21184 85.5905
lradius 21.6233
lwrist -17.8545
lhand -4.92677 -19.8281
lfingers 7.12502
lthumb 20.8638 9.07005
rfemur 4.6025 1.04838 9.98993
rtibia 7.18097
rfoot -11.3121 0.788549
rtoes 10.1264
lfemur 14.1927 -1.54666 -22.9499
ltibia 0.246355
lfoot -13.6101 10.8612
ltoes 4.19401
479
root 45.811 17.1849 -0.0866198 782.554 85.5203 785.867
lowerback 6.7147 2.37734 -5.57835
upperback 2.31078 2.85088 -0.402722
thorax -1.61794 1.44394 2.47656
lowerneck -22.0673 0.973895 3.05993
upperneck 25.8235 0.916221 -1.27928
head 12.2148 0.637536 -0.82413
rclavicle 5.96354e-016 -1.23246e-014
rhumerus -34.6455 16.2636 -87.3973
rradius 66.861
rwrist -9.61509
rhand -10.8827 -30.9192
rfingers 7.12502
rthumb 15.1335 -60.3459
lclavicle 5.96354e-016 -1.23246e-014
lhumerus -45.8506 -5.18225 85.3592
lradius 21.5548
lwrist -17.3308
lhand -4.92224 -19.8665
lfingers 7.12502
lthumb 20.8681 9.03115
rfemur 4.82544 1.72285 10.9138
rtibia 6.79081
rfoot -11.3776 0.158736
rtoes 9.65667
lfemur 14.3407 -1.65886 -22.1562
ltibia 0.152959
lfoot -13.531 11.0583
ltoes 2.99524
480
root 45.8321 17.1827 -0.0922491 782.857 85.7399 786.042
lowerback 6.59492 2.39769 -5.26513
upperback 2.2684 2.90233 -0.406215
thorax -1.58523 1.46894 2.29758
lowerneck -21.8979 0.914644 2.9246
upperneck 25.7643 0.886911 -1.27268
head 12.1561 0.612841 -0.803613
rclavicle 1.35049e-014 -9.54166e-015
rhumerus -34.6482 16.2488 -87.2027
rradius 67.3788
rwrist -9.7189
rhand -11.1485 -30.6635
rfingers 7.12502
rthumb 14.8774 -60.1094
lclavicle 1.35049e-014 -9.54166e-015
lhumerus -46.0283 -5.29033 85.228
lradius 21.5273
lwrist -16.8557
lhand -5.16458 -19.9355
lfingers 7.12502
lthumb 20.6353 8.98763
rfemur 4.91354 1.26271 11.0046
rtibia 6.6941
rfoot -11.4146 0.588802
rtoes 10.6579
lfemur 14.2968 -1.76278 -22.0362
ltibia 0.161276
lfoot -13.7256 11.0166
ltoes 3.68558
481
root 45.852 17.1838 -0.0929275 784.221 85.5808 787.219
lowerback 6.48743 2.49386 -5.40572
upperback 2.15702 3.02082 -0.503855
thorax -1.6518 1.53078 2.26641
lowerneck -22.041 0.690954 2.78975
upperneck 26.0708 0.654698 -1.37441
head 12.2987 0.487541 -0.859006
rclavicle 3.07433e-014 -2.28602e-015
rhumerus -34.7924 16.0769 -86.9941
rradius 67.9489
rwrist -9.51617
rhand -11.102 -30.6866
rfingers 7.12502
rthumb 14.9222 -60.1291
lclavicle 3.07433e-014 -2.28602e-015
lhumerus -46.218 -5.52466 85.1407
lradius 21.5753
lwrist -16.405
lhand -5.39317 -20.1946
lfingers 7.12502
lthumb 20.4156 8.75222
rfemur 4.85488 0.918341 10.6696
rtibia 6.61032
rfoot -11.3634 0.913828
rtoes 10.9444
lfemur 14.1248 -1.80194 -22.3331
ltibia 0.246488
lfoot -13.953 11.0167
ltoes 4.49904
482
root 45.8708 17.1841 -0.0900304 782.688 85.9079 785.614
lowerback 6.35306 2.53417 -5.11354
upperback 2.20441 3.10341 -0.428067
thorax -1.52441 1.56799 2.18188
lowerneck -21.9976 0.663084 2.74776
upperneck 25.8838 0.57702 -1.22057
head 12.2139 0.466326 -0.806169
rclavicle 4.57826e-015 1.54058e-014
rhumerus -34.6537 16.044 -86.7578
rradius 68.4318
rwrist -9.53437
rhand -11.18 -30.9024
rfingers 7.12502
rthumb 14.8471 -60.3504
lclavicle 4.57826e-015 1.54058e-014
lhumerus -46.1509 -5.46339 84.8681
lradius 21.6144
lwrist -16.2192
lhand -5.58546 -20.633
lfingers 7.12502
lthumb 20.2308 8.33345
rfemur 4.96061 0.828838 11.0926
rtibia 6.43
rfoot -11.3151 0.955163
rtoes 11.0354
lfemur 14.1483 -1.82697 -21.9212
ltibia 0.201982
lfoot -13.9735 11.0266
ltoes 3.96279
483
root 45.8844 17.1859 -0.0873944 783.12 85.9275 785.907
lowerback 6.23598 2.565 -5.18859
upperback 2.20279 3.14659 -0.456738
thorax -1.46649 1.58821 2.1957
lowerneck -21.6737 0.838874 3.0353
upperneck 25.617 0.797638 -1.44145
head 12.0527 0.561371 -0.900233
rclavicle 7.86442e-015 8.24956e-015
rhumerus -34.5342 16.0474 -86.6092
rradius 68.7587
rwrist -9.74363
rhand -11.7451 -30.685
rfingers 7.12502
rthumb 14.3026 -60.1724
lclavicle 7.86442e-015 8.24956e-015
lhumerus -46.143 -5.23232 84.4786
lradius 21.7693
lwrist -16.1754
lhand -5.74946 -20.8831
lfingers 7.12502
lthumb 20.0732 8.10001
rfemur 4.94026 0.733253 11.0834
rtibia 6.29395
rfoot -11.2758 0.997085
rtoes 10.9514
lfemur 14.0676 -1.89615 -21.9349
ltibia 0.14951
lfoot -14.0263 11.0628
ltoes 3.59572
484
root 45.8943 17.1879 -0.0863998 782.806 85.8883 785.48
lowerback 6.22613 2.63546 -5.23276
upperback 2.16431 3.23574 -0.510699
thorax -1.50688 1.63413 2.15654
lowerneck -21.7237 0.772653 2.9451
upperneck 25.6732 0.714695 -1.37115
head 12.0816 0.525764 -0.872445
rclavicle 1.21445e-014 1.2275e-014
rhumerus -34.473 15.974 -86.4462
rradius 68.891
rwrist -9.61284
rhand -12.0626 -30.3499
rfingers 7.12502
rthumb 13.9966 -59.8587
lclavicle 1.21445e-014 1.2275e-014
lhumerus -46.1663 -4.55963 83.7936
lradius 22.0585
lwrist -16.6197
lhand -5.84062 -21.106
lfingers 7.12502
lthumb 19.9856 7.88622
rfemur 4.84507 0.615253 11.0142
rtibia 6.28458
rfoot -11.2339 1.17243
rtoes 11.0595
lfemur 14.0042 -2.03753 -22.0326
ltibia 0.115834
lfoot -14.0685 11.2434
ltoes 3.25111
485
root 45.9064 17.1877 -0.086298 781.309 86.0862 783.918
lowerback 6.21404 2.6913 -4.98185
upperback 2.14486 3.32429 -0.496026
thorax -1.5146 1.67844 2.02463
lowerneck -21.7075 0.719917 2.74147
upperneck 25.6863 0.63333 -1.09973
head 12.0799 0.506801 -0.749278
rclavicle 3.5657e-015 -1.04362e-014
rhumerus -34.3954 15.9479 -86.2614
rradius 68.9144
rwrist -9.41252
rhand -12.1356 -30.2433
rfingers 7.12502
rthumb 13.9263 -59.7569
lclavicle 3.5657e-015 -1.04362e-014
lhumerus -46.1875 -3.57832 82.9266
lradius 22.353
lwrist -17.4146
lhand -6.02333 -21.4386
lfingers 7.12502
lthumb 19.8099 7.57187
rfemur 4.85395 0.433462 11.2406
rtibia 6.23411
rfoot -11.1938 1.37218
rtoes 11.1658
lfemur 14.022 -2.14771 -21.8243
ltibia 0.0811419
lfoot -14.049 11.4007
ltoes 2.65632
486
root 45.9199 17.1881 -0.0858383 783.146 85.9746 785.642
lowerback 6.03155 2.74207 -5.11308
upperback 2.18282 3.39672 -0.595851
thorax -1.38026 1.71182 1.99891
lowerneck -21.5275 0.695634 2.69792
upperneck 25.4917 0.596748 -1.03489
head 11.9672 0.492812 -0.723228
rclavicle -8.15949e-015 3.47873e-015
rhumerus -34.3095 15.7578 -86.0974
rradius 69.0487
rwrist -9.31879
rhand -12.2106 -30.2774
rfingers 7.12502
rthumb 13.854 -59.796
lclavicle -8.15949e-015 3.47873e-015
lhumerus -46.1381 -3.13952 82.4037
lradius 22.652
lwrist -17.7443
lhand -6.31313 -21.6357
lfingers 7.12502
lthumb 19.5313 7.40328
rfemur 4.87038 0.177952 10.9799
rtibia 6.11055
rfoot -11.1116 1.54366
rtoes 11.0865
lfemur 13.937 -2.1323 -22.0307
ltibia 0.0967992
lfoot -13.9911 11.4302
ltoes 2.05224
